<svg xmlns="http://www.w3.org/2000/svg" version="1.1" xmlns:xlink="http://www.w3.org/1999/xlink" xmlns:svgjs="http://svgjs.dev/svgjs" width="500" height="311" viewBox="0 0 500 311"><g transform="matrix(1,0,0,1,-0.6060606060606233,0.2522267206477409)"><svg viewBox="0 0 396 247" data-background-color="#ffffff" preserveAspectRatio="xMidYMid meet" height="311" width="500" xmlns="http://www.w3.org/2000/svg" xmlns:xlink="http://www.w3.org/1999/xlink"><g id="tight-bounds" transform="matrix(1,0,0,1,0.2400000000000091,-0.09999999999999432)"><svg viewBox="0 0 395.52 247.2" height="247.2" width="395.52"><g><svg></svg></g><g><svg viewBox="0 0 395.52 247.2" height="247.2" width="395.52"><g transform="matrix(1,0,0,1,75.54432000000001,49.953148675324684)"><svg viewBox="0 0 244.43135999999996 147.29370264935062" height="147.29370264935062" width="244.43135999999996"><g><svg viewBox="0 0 244.43135999999996 147.29370264935062" height="147.29370264935062" width="244.43135999999996"><g><svg viewBox="0 0 244.43135999999996 147.29370264935062" height="147.29370264935062" width="244.43135999999996"><g><svg viewBox="0 0 244.43135999999996 147.29370264935062" height="147.29370264935062" width="244.43135999999996"><g id="textblocktransform"><svg viewBox="0 0 244.43135999999996 147.29370264935062" height="147.29370264935062" width="244.43135999999996" id="textblock"><g><svg viewBox="0 0 244.43135999999996 147.29370264935062" height="147.29370264935062" width="244.43135999999996"><g transform="matrix(1,0,0,1,0,0)"><svg width="244.43135999999996" viewBox="0.5 -34.3 57.75 34.8" height="147.29370264935062" data-palette-color="#ffffff"><path d="M0.5-11.4L7.75-11.4 7.75-9.35Q7.75-7.85 8.85-6.75 9.95-5.65 11.4-5.65L11.4-5.65Q13.05-5.65 14.13-6.68 15.2-7.7 15.2-9.35L15.2-9.35 15.2-34.3 22.75-34.3 22.75-9.15Q22.75-4.55 19.75-2.02 16.75 0.5 11.95 0.5L11.95 0.5 10.95 0.5Q6.15 0.5 3.33-2 0.5-4.5 0.5-9.15L0.5-9.15 0.5-11.4ZM42.95-34.3Q47.2-34.3 50.67-32.5 54.15-30.7 56.2-27.25 58.25-23.8 58.25-19.1L58.25-19.1 58.25-15.2Q58.25-10.5 56.2-7.05 54.15-3.6 50.67-1.8 47.2 0 42.95 0L42.95 0 29.95 0 29.95-34.3 42.95-34.3ZM37.7-28.15L37.7-6.15 42.95-6.15Q46.15-6.15 48.15-8.22 50.15-10.3 50.15-14.1L50.15-14.1 50.15-20.2Q50.15-24 48.15-26.08 46.15-28.15 42.95-28.15L42.95-28.15 37.7-28.15Z" opacity="1" transform="matrix(1,0,0,1,0,0)" fill="#ffffff" class="wordmark-text-0" data-fill-palette-color="primary" id="text-0"></path></svg></g></svg></g></svg></g></svg></g></svg></g></svg></g></svg></g><path d="M139.808 43.953L139.808 0.975 385.058 0.975 385.058 246.225 139.808 246.225 139.808 203.247 153.091 203.247 153.091 232.942 371.775 232.942 371.775 14.258 153.091 14.258 153.091 43.953Z" fill="#ffffff" stroke="transparent" data-fill-palette-color="primary"></path></svg></g><defs></defs></svg><rect width="395.52" height="247.2" fill="none" stroke="none" visibility="hidden"></rect></g></svg></g></svg>